<?xml version="1.0" encoding="UTF-8" standalone="no"?>
<!DOCTYPE svg PUBLIC "-//W3C//DTD SVG 1.1//EN"
 "http://www.w3.org/Graphics/SVG/1.1/DTD/svg11.dtd">
<!-- Generated by graphviz version 9.0.0 (20230911.1827)
 -->
<!-- Title: /github/workspace/OOP/01_Creating_Class_Objects/src/Accounts.cpp Pages: 1 -->
<svg width="148pt" height="160pt"
 viewBox="0.00 0.00 147.75 160.25" xmlns="http://www.w3.org/2000/svg" xmlns:xlink="http://www.w3.org/1999/xlink">
<g id="graph0" class="graph" transform="scale(1 1) rotate(0) translate(4 156.25)">
<title>/github/workspace/OOP/01_Creating_Class_Objects/src/Accounts.cpp</title>
<!-- Node1 -->
<g id="Node000001" class="node">
<title>Node1</title>
<g id="a_Node000001"><a xlink:title=" ">
<polygon fill="#999999" stroke="#666666" points="139.75,-152.25 0,-152.25 0,-110.5 139.75,-110.5 139.75,-152.25"/>
<text text-anchor="start" x="8" y="-138.75" font-family="Helvetica,sans-Serif" font-size="10.00">/github/workspace/OOP</text>
<text text-anchor="start" x="8" y="-127.5" font-family="Helvetica,sans-Serif" font-size="10.00">/01_Creating_Class_Objects</text>
<text text-anchor="middle" x="69.88" y="-116.25" font-family="Helvetica,sans-Serif" font-size="10.00">/src/Accounts.cpp</text>
</a>
</g>
</g>
<!-- Node2 -->
<g id="Node000002" class="node">
<title>Node2</title>
<g id="a_Node000002"><a xlink:href="Accounts_8h.html" target="_top" xlink:title=" ">
<polygon fill="white" stroke="#666666" points="124.38,-74.5 15.38,-74.5 15.38,-55.25 124.38,-55.25 124.38,-74.5"/>
<text text-anchor="middle" x="69.88" y="-61" font-family="Helvetica,sans-Serif" font-size="10.00">Accounts/Accounts.h</text>
</a>
</g>
</g>
<!-- Node1&#45;&gt;Node2 -->
<g id="edge1_Node000001_Node000002" class="edge">
<title>Node1&#45;&gt;Node2</title>
<g id="a_edge1_Node000001_Node000002"><a xlink:title=" ">
<path fill="none" stroke="#63b8ff" d="M69.88,-110.32C69.88,-102.65 69.88,-93.89 69.88,-86.2"/>
<polygon fill="#63b8ff" stroke="#63b8ff" points="73.38,-86.46 69.88,-76.46 66.38,-86.46 73.38,-86.46"/>
</a>
</g>
</g>
<!-- Node3 -->
<g id="Node000003" class="node">
<title>Node3</title>
<g id="a_Node000003"><a xlink:title=" ">
<polygon fill="#e0e0e0" stroke="#999999" points="64.62,-19.25 11.12,-19.25 11.12,0 64.62,0 64.62,-19.25"/>
<text text-anchor="middle" x="37.88" y="-5.75" font-family="Helvetica,sans-Serif" font-size="10.00">iostream</text>
</a>
</g>
</g>
<!-- Node2&#45;&gt;Node3 -->
<g id="edge2_Node000002_Node000003" class="edge">
<title>Node2&#45;&gt;Node3</title>
<g id="a_edge2_Node000002_Node000003"><a xlink:title=" ">
<path fill="none" stroke="#63b8ff" d="M64.59,-55.08C60.4,-48.11 54.4,-38.12 49.14,-29.37"/>
<polygon fill="#63b8ff" stroke="#63b8ff" points="52.2,-27.68 44.05,-20.91 46.2,-31.28 52.2,-27.68"/>
</a>
</g>
</g>
<!-- Node4 -->
<g id="Node000004" class="node">
<title>Node4</title>
<g id="a_Node000004"><a xlink:title=" ">
<polygon fill="#e0e0e0" stroke="#999999" points="122.88,-19.25 82.88,-19.25 82.88,0 122.88,0 122.88,-19.25"/>
<text text-anchor="middle" x="102.88" y="-5.75" font-family="Helvetica,sans-Serif" font-size="10.00">string</text>
</a>
</g>
</g>
<!-- Node2&#45;&gt;Node4 -->
<g id="edge3_Node000002_Node000004" class="edge">
<title>Node2&#45;&gt;Node4</title>
<g id="a_edge3_Node000002_Node000004"><a xlink:title=" ">
<path fill="none" stroke="#63b8ff" d="M75.32,-55.08C79.65,-48.11 85.84,-38.12 91.26,-29.37"/>
<polygon fill="#63b8ff" stroke="#63b8ff" points="94.22,-31.24 96.51,-20.9 88.27,-27.55 94.22,-31.24"/>
</a>
</g>
</g>
</g>
</svg>
