<?xml version="1.0" encoding="UTF-8" standalone="no"?>
<!DOCTYPE svg PUBLIC "-//W3C//DTD SVG 1.1//EN"
 "http://www.w3.org/Graphics/SVG/1.1/DTD/svg11.dtd">
<!-- Generated by graphviz version 9.0.0 (20230911.1827)
 -->
<!-- Title: /github/workspace/Inheritance/01_dering_classes_from_existing_one/Account.cpp Pages: 1 -->
<svg width="171pt" height="160pt"
 viewBox="0.00 0.00 171.00 160.25" xmlns="http://www.w3.org/2000/svg" xmlns:xlink="http://www.w3.org/1999/xlink">
<g id="graph0" class="graph" transform="scale(1 1) rotate(0) translate(4 156.25)">
<title>/github/workspace/Inheritance/01_dering_classes_from_existing_one/Account.cpp</title>
<!-- Node1 -->
<g id="Node000001" class="node">
<title>Node1</title>
<g id="a_Node000001"><a xlink:title=" ">
<polygon fill="#999999" stroke="#666666" points="163,-152.25 0,-152.25 0,-110.5 163,-110.5 163,-152.25"/>
<text text-anchor="start" x="8" y="-138.75" font-family="Helvetica,sans-Serif" font-size="10.00">/github/workspace/Inheritance</text>
<text text-anchor="start" x="8" y="-127.5" font-family="Helvetica,sans-Serif" font-size="10.00">/01_dering_classes_from_existing</text>
<text text-anchor="middle" x="81.5" y="-116.25" font-family="Helvetica,sans-Serif" font-size="10.00">_one/Account.cpp</text>
</a>
</g>
</g>
<!-- Node2 -->
<g id="Node000002" class="node">
<title>Node2</title>
<g id="a_Node000002"><a xlink:href="Account_8h.html" target="_top" xlink:title=" ">
<polygon fill="white" stroke="#666666" points="74.25,-74.5 14.75,-74.5 14.75,-55.25 74.25,-55.25 74.25,-74.5"/>
<text text-anchor="middle" x="44.5" y="-61" font-family="Helvetica,sans-Serif" font-size="10.00">Account.h</text>
</a>
</g>
</g>
<!-- Node1&#45;&gt;Node2 -->
<g id="edge1_Node000001_Node000002" class="edge">
<title>Node1&#45;&gt;Node2</title>
<g id="a_edge1_Node000001_Node000002"><a xlink:title=" ">
<path fill="none" stroke="#63b8ff" d="M70,-110.32C65.33,-102.18 59.97,-92.83 55.37,-84.82"/>
<polygon fill="#63b8ff" stroke="#63b8ff" points="58.47,-83.19 50.46,-76.26 52.4,-86.67 58.47,-83.19"/>
</a>
</g>
</g>
<!-- Node4 -->
<g id="Node000004" class="node">
<title>Node4</title>
<g id="a_Node000004"><a xlink:title=" ">
<polygon fill="#e0e0e0" stroke="#999999" points="146.25,-74.5 92.75,-74.5 92.75,-55.25 146.25,-55.25 146.25,-74.5"/>
<text text-anchor="middle" x="119.5" y="-61" font-family="Helvetica,sans-Serif" font-size="10.00">iostream</text>
</a>
</g>
</g>
<!-- Node1&#45;&gt;Node4 -->
<g id="edge3_Node000001_Node000004" class="edge">
<title>Node1&#45;&gt;Node4</title>
<g id="a_edge3_Node000001_Node000004"><a xlink:title=" ">
<path fill="none" stroke="#63b8ff" d="M93.32,-110.32C98.11,-102.18 103.62,-92.83 108.34,-84.82"/>
<polygon fill="#63b8ff" stroke="#63b8ff" points="111.33,-86.64 113.39,-76.25 105.3,-83.09 111.33,-86.64"/>
</a>
</g>
</g>
<!-- Node3 -->
<g id="Node000003" class="node">
<title>Node3</title>
<g id="a_Node000003"><a xlink:title=" ">
<polygon fill="#e0e0e0" stroke="#999999" points="64.5,-19.25 24.5,-19.25 24.5,0 64.5,0 64.5,-19.25"/>
<text text-anchor="middle" x="44.5" y="-5.75" font-family="Helvetica,sans-Serif" font-size="10.00">string</text>
</a>
</g>
</g>
<!-- Node2&#45;&gt;Node3 -->
<g id="edge2_Node000002_Node000003" class="edge">
<title>Node2&#45;&gt;Node3</title>
<g id="a_edge2_Node000002_Node000003"><a xlink:title=" ">
<path fill="none" stroke="#63b8ff" d="M44.5,-55.08C44.5,-48.57 44.5,-39.42 44.5,-31.12"/>
<polygon fill="#63b8ff" stroke="#63b8ff" points="48,-31.12 44.5,-21.12 41,-31.12 48,-31.12"/>
</a>
</g>
</g>
</g>
</svg>
