<?xml version="1.0" encoding="UTF-8" standalone="no"?>
<!DOCTYPE svg PUBLIC "-//W3C//DTD SVG 1.1//EN"
 "http://www.w3.org/Graphics/SVG/1.1/DTD/svg11.dtd">
<!-- Generated by graphviz version 9.0.0 (20230911.1827)
 -->
<!-- Title: /github/workspace/Inheritance/01_dering_classes_from_existing_one/Account.h Pages: 1 -->
<svg width="462pt" height="205pt"
 viewBox="0.00 0.00 462.00 205.25" xmlns="http://www.w3.org/2000/svg" xmlns:xlink="http://www.w3.org/1999/xlink">
<g id="graph0" class="graph" transform="scale(1 1) rotate(0) translate(4 201.25)">
<title>/github/workspace/Inheritance/01_dering_classes_from_existing_one/Account.h</title>
<!-- Node1 -->
<g id="Node000001" class="node">
<title>Node1</title>
<g id="a_Node000001"><a xlink:title=" ">
<polygon fill="#999999" stroke="#666666" points="344,-197.25 181,-197.25 181,-155.5 344,-155.5 344,-197.25"/>
<text text-anchor="start" x="189" y="-183.75" font-family="Helvetica,sans-Serif" font-size="10.00">/github/workspace/Inheritance</text>
<text text-anchor="start" x="189" y="-172.5" font-family="Helvetica,sans-Serif" font-size="10.00">/01_dering_classes_from_existing</text>
<text text-anchor="middle" x="262.5" y="-161.25" font-family="Helvetica,sans-Serif" font-size="10.00">_one/Account.h</text>
</a>
</g>
</g>
<!-- Node2 -->
<g id="Node000002" class="node">
<title>Node2</title>
<g id="a_Node000002"><a xlink:href="Account_8cpp.html" target="_top" xlink:title=" ">
<polygon fill="white" stroke="#666666" points="163,-119.5 0,-119.5 0,-77.75 163,-77.75 163,-119.5"/>
<text text-anchor="start" x="8" y="-106" font-family="Helvetica,sans-Serif" font-size="10.00">/github/workspace/Inheritance</text>
<text text-anchor="start" x="8" y="-94.75" font-family="Helvetica,sans-Serif" font-size="10.00">/01_dering_classes_from_existing</text>
<text text-anchor="middle" x="81.5" y="-83.5" font-family="Helvetica,sans-Serif" font-size="10.00">_one/Account.cpp</text>
</a>
</g>
</g>
<!-- Node1&#45;&gt;Node2 -->
<g id="edge1_Node000001_Node000002" class="edge">
<title>Node1&#45;&gt;Node2</title>
<g id="a_edge1_Node000001_Node000002"><a xlink:title=" ">
<path fill="none" stroke="#63b8ff" d="M203.68,-150.76C179.9,-140.81 152.78,-129.46 130.14,-119.98"/>
<polygon fill="#63b8ff" stroke="#63b8ff" points="202.02,-153.86 212.6,-154.49 204.73,-147.4 202.02,-153.86"/>
</a>
</g>
</g>
<!-- Node3 -->
<g id="Node000003" class="node">
<title>Node3</title>
<g id="a_Node000003"><a xlink:href="Saving__Account_8h.html" target="_top" xlink:title=" ">
<polygon fill="white" stroke="#666666" points="344,-119.5 181,-119.5 181,-77.75 344,-77.75 344,-119.5"/>
<text text-anchor="start" x="189" y="-106" font-family="Helvetica,sans-Serif" font-size="10.00">/github/workspace/Inheritance</text>
<text text-anchor="start" x="189" y="-94.75" font-family="Helvetica,sans-Serif" font-size="10.00">/01_dering_classes_from_existing</text>
<text text-anchor="middle" x="262.5" y="-83.5" font-family="Helvetica,sans-Serif" font-size="10.00">_one/Saving_Account.h</text>
</a>
</g>
</g>
<!-- Node1&#45;&gt;Node3 -->
<g id="edge2_Node000001_Node000003" class="edge">
<title>Node1&#45;&gt;Node3</title>
<g id="a_edge2_Node000001_Node000003"><a xlink:title=" ">
<path fill="none" stroke="#63b8ff" d="M262.5,-143.75C262.5,-135.71 262.5,-127.29 262.5,-119.98"/>
<polygon fill="#63b8ff" stroke="#63b8ff" points="259,-143.56 262.5,-153.56 266,-143.56 259,-143.56"/>
</a>
</g>
</g>
<!-- Node5 -->
<g id="Node000005" class="node">
<title>Node5</title>
<g id="a_Node000005"><a xlink:href="Inheritance_201__dering__classes__from__existing__one_2main_8cpp.html" target="_top" xlink:title=" ">
<polygon fill="white" stroke="#666666" points="454,-41.75 291,-41.75 291,0 454,0 454,-41.75"/>
<text text-anchor="start" x="299" y="-28.25" font-family="Helvetica,sans-Serif" font-size="10.00">/github/workspace/Inheritance</text>
<text text-anchor="start" x="299" y="-17" font-family="Helvetica,sans-Serif" font-size="10.00">/01_dering_classes_from_existing</text>
<text text-anchor="middle" x="372.5" y="-5.75" font-family="Helvetica,sans-Serif" font-size="10.00">_one/main.cpp</text>
</a>
</g>
</g>
<!-- Node1&#45;&gt;Node5 -->
<g id="edge5_Node000001_Node000005" class="edge">
<title>Node1&#45;&gt;Node5</title>
<g id="a_edge5_Node000001_Node000005"><a xlink:title=" ">
<path fill="none" stroke="#63b8ff" d="M320.94,-149.41C333.33,-141.44 345.17,-131.52 353.5,-119.5 369.54,-96.37 372.85,-63.12 373.15,-42.01"/>
<polygon fill="#63b8ff" stroke="#63b8ff" points="319.47,-146.2 312.7,-154.35 323.07,-152.21 319.47,-146.2"/>
</a>
</g>
</g>
<!-- Node4 -->
<g id="Node000004" class="node">
<title>Node4</title>
<g id="a_Node000004"><a xlink:href="Saving__Account_8cpp.html" target="_top" xlink:title=" ">
<polygon fill="white" stroke="#666666" points="273,-41.75 110,-41.75 110,0 273,0 273,-41.75"/>
<text text-anchor="start" x="118" y="-28.25" font-family="Helvetica,sans-Serif" font-size="10.00">/github/workspace/Inheritance</text>
<text text-anchor="start" x="118" y="-17" font-family="Helvetica,sans-Serif" font-size="10.00">/01_dering_classes_from_existing</text>
<text text-anchor="middle" x="191.5" y="-5.75" font-family="Helvetica,sans-Serif" font-size="10.00">_one/Saving_Account.cpp</text>
</a>
</g>
</g>
<!-- Node3&#45;&gt;Node4 -->
<g id="edge3_Node000003_Node000004" class="edge">
<title>Node3&#45;&gt;Node4</title>
<g id="a_edge3_Node000003_Node000004"><a xlink:title=" ">
<path fill="none" stroke="#63b8ff" d="M235.73,-69.06C227.36,-60.14 218.31,-50.47 210.58,-42.23"/>
<polygon fill="#63b8ff" stroke="#63b8ff" points="233.05,-71.32 242.44,-76.22 238.15,-66.53 233.05,-71.32"/>
</a>
</g>
</g>
<!-- Node3&#45;&gt;Node5 -->
<g id="edge4_Node000003_Node000005" class="edge">
<title>Node3&#45;&gt;Node5</title>
<g id="a_edge4_Node000003_Node000005"><a xlink:title=" ">
<path fill="none" stroke="#63b8ff" d="M301.19,-70.98C314.9,-61.54 330.11,-51.07 342.94,-42.23"/>
<polygon fill="#63b8ff" stroke="#63b8ff" points="299.48,-67.91 293.22,-76.47 303.45,-73.68 299.48,-67.91"/>
</a>
</g>
</g>
</g>
</svg>
