<?xml version="1.0" encoding="UTF-8" standalone="no"?>
<!DOCTYPE svg PUBLIC "-//W3C//DTD SVG 1.1//EN"
 "http://www.w3.org/Graphics/SVG/1.1/DTD/svg11.dtd">
<!-- Generated by graphviz version 9.0.0 (20230911.1827)
 -->
<!-- Title: /github/workspace/OOP/01_Creating_Class_Objects/include/Accounts/Accounts.h Pages: 1 -->
<svg width="154pt" height="105pt"
 viewBox="0.00 0.00 153.75 105.00" xmlns="http://www.w3.org/2000/svg" xmlns:xlink="http://www.w3.org/1999/xlink">
<g id="graph0" class="graph" transform="scale(1 1) rotate(0) translate(4 101)">
<title>/github/workspace/OOP/01_Creating_Class_Objects/include/Accounts/Accounts.h</title>
<!-- Node1 -->
<g id="Node000001" class="node">
<title>Node1</title>
<g id="a_Node000001"><a xlink:title=" ">
<polygon fill="#999999" stroke="#666666" points="145.75,-97 0,-97 0,-55.25 145.75,-55.25 145.75,-97"/>
<text text-anchor="start" x="8" y="-83.5" font-family="Helvetica,sans-Serif" font-size="10.00">/github/workspace/OOP</text>
<text text-anchor="start" x="8" y="-72.25" font-family="Helvetica,sans-Serif" font-size="10.00">/01_Creating_Class_Objects</text>
<text text-anchor="middle" x="72.88" y="-61" font-family="Helvetica,sans-Serif" font-size="10.00">/include/Accounts/Accounts.h</text>
</a>
</g>
</g>
<!-- Node2 -->
<g id="Node000002" class="node">
<title>Node2</title>
<g id="a_Node000002"><a xlink:title=" ">
<polygon fill="#e0e0e0" stroke="#999999" points="67.62,-19.25 14.12,-19.25 14.12,0 67.62,0 67.62,-19.25"/>
<text text-anchor="middle" x="40.88" y="-5.75" font-family="Helvetica,sans-Serif" font-size="10.00">iostream</text>
</a>
</g>
</g>
<!-- Node1&#45;&gt;Node2 -->
<g id="edge1_Node000001_Node000002" class="edge">
<title>Node1&#45;&gt;Node2</title>
<g id="a_edge1_Node000001_Node000002"><a xlink:title=" ">
<path fill="none" stroke="#63b8ff" d="M62.93,-55.07C58.93,-47.03 54.36,-37.8 50.41,-29.84"/>
<polygon fill="#63b8ff" stroke="#63b8ff" points="53.63,-28.45 46.05,-21.05 47.36,-31.56 53.63,-28.45"/>
</a>
</g>
</g>
<!-- Node3 -->
<g id="Node000003" class="node">
<title>Node3</title>
<g id="a_Node000003"><a xlink:title=" ">
<polygon fill="#e0e0e0" stroke="#999999" points="125.88,-19.25 85.88,-19.25 85.88,0 125.88,0 125.88,-19.25"/>
<text text-anchor="middle" x="105.88" y="-5.75" font-family="Helvetica,sans-Serif" font-size="10.00">string</text>
</a>
</g>
</g>
<!-- Node1&#45;&gt;Node3 -->
<g id="edge2_Node000001_Node000003" class="edge">
<title>Node1&#45;&gt;Node3</title>
<g id="a_edge2_Node000001_Node000003"><a xlink:title=" ">
<path fill="none" stroke="#63b8ff" d="M83.14,-55.07C87.25,-47.03 91.97,-37.8 96.04,-29.84"/>
<polygon fill="#63b8ff" stroke="#63b8ff" points="99.11,-31.54 100.54,-21.04 92.87,-28.35 99.11,-31.54"/>
</a>
</g>
</g>
</g>
</svg>
