<?xml version="1.0" encoding="UTF-8" standalone="no"?>
<!DOCTYPE svg PUBLIC "-//W3C//DTD SVG 1.1//EN"
 "http://www.w3.org/Graphics/SVG/1.1/DTD/svg11.dtd">
<!-- Generated by graphviz version 9.0.0 (20230911.1827)
 -->
<!-- Title: /github/workspace/OOP/04_Move_Constructor/src/Copy.h Pages: 1 -->
<svg width="266pt" height="128pt"
 viewBox="0.00 0.00 266.25 127.50" xmlns="http://www.w3.org/2000/svg" xmlns:xlink="http://www.w3.org/1999/xlink">
<g id="graph0" class="graph" transform="scale(1 1) rotate(0) translate(4 123.5)">
<title>/github/workspace/OOP/04_Move_Constructor/src/Copy.h</title>
<!-- Node1 -->
<g id="Node000001" class="node">
<title>Node1</title>
<g id="a_Node000001"><a xlink:title=" ">
<polygon fill="#999999" stroke="#666666" points="189.25,-119.5 69,-119.5 69,-77.75 189.25,-77.75 189.25,-119.5"/>
<text text-anchor="start" x="77" y="-106" font-family="Helvetica,sans-Serif" font-size="10.00">/github/workspace/OOP</text>
<text text-anchor="start" x="77" y="-94.75" font-family="Helvetica,sans-Serif" font-size="10.00">/04_Move_Constructor</text>
<text text-anchor="middle" x="129.12" y="-83.5" font-family="Helvetica,sans-Serif" font-size="10.00">/src/Copy.h</text>
</a>
</g>
</g>
<!-- Node2 -->
<g id="Node000002" class="node">
<title>Node2</title>
<g id="a_Node000002"><a xlink:href="main__copy__move_8cpp.html" target="_top" xlink:title=" ">
<polygon fill="white" stroke="#666666" points="120.25,-41.75 0,-41.75 0,0 120.25,0 120.25,-41.75"/>
<text text-anchor="start" x="8" y="-28.25" font-family="Helvetica,sans-Serif" font-size="10.00">/github/workspace/OOP</text>
<text text-anchor="start" x="8" y="-17" font-family="Helvetica,sans-Serif" font-size="10.00">/04_Move_Constructor</text>
<text text-anchor="middle" x="60.12" y="-5.75" font-family="Helvetica,sans-Serif" font-size="10.00">/main_copy_move.cpp</text>
</a>
</g>
</g>
<!-- Node1&#45;&gt;Node2 -->
<g id="edge1_Node000001_Node000002" class="edge">
<title>Node1&#45;&gt;Node2</title>
<g id="a_edge1_Node000001_Node000002"><a xlink:title=" ">
<path fill="none" stroke="#63b8ff" d="M103.11,-69.06C94.98,-60.14 86.17,-50.47 78.67,-42.23"/>
<polygon fill="#63b8ff" stroke="#63b8ff" points="100.29,-71.17 109.62,-76.21 105.47,-66.46 100.29,-71.17"/>
</a>
</g>
</g>
<!-- Node3 -->
<g id="Node000003" class="node">
<title>Node3</title>
<g id="a_Node000003"><a xlink:href="Copy_8cpp.html" target="_top" xlink:title=" ">
<polygon fill="white" stroke="#666666" points="258.25,-41.75 138,-41.75 138,0 258.25,0 258.25,-41.75"/>
<text text-anchor="start" x="146" y="-28.25" font-family="Helvetica,sans-Serif" font-size="10.00">/github/workspace/OOP</text>
<text text-anchor="start" x="146" y="-17" font-family="Helvetica,sans-Serif" font-size="10.00">/04_Move_Constructor</text>
<text text-anchor="middle" x="198.12" y="-5.75" font-family="Helvetica,sans-Serif" font-size="10.00">/src/Copy.cpp</text>
</a>
</g>
</g>
<!-- Node1&#45;&gt;Node3 -->
<g id="edge2_Node000001_Node000003" class="edge">
<title>Node1&#45;&gt;Node3</title>
<g id="a_edge2_Node000001_Node000003"><a xlink:title=" ">
<path fill="none" stroke="#63b8ff" d="M155.14,-69.06C163.27,-60.14 172.08,-50.47 179.58,-42.23"/>
<polygon fill="#63b8ff" stroke="#63b8ff" points="152.78,-66.46 148.63,-76.21 157.96,-71.17 152.78,-66.46"/>
</a>
</g>
</g>
</g>
</svg>
