<?xml version="1.0" encoding="UTF-8" standalone="no"?>
<!DOCTYPE svg PUBLIC "-//W3C//DTD SVG 1.1//EN"
 "http://www.w3.org/Graphics/SVG/1.1/DTD/svg11.dtd">
<!-- Generated by graphviz version 9.0.0 (20230911.1827)
 -->
<!-- Title: /github/workspace/OOP/04_Move_Constructor/src/Copy.cpp Pages: 1 -->
<svg width="129pt" height="105pt"
 viewBox="0.00 0.00 128.88 105.00" xmlns="http://www.w3.org/2000/svg" xmlns:xlink="http://www.w3.org/1999/xlink">
<g id="graph0" class="graph" transform="scale(1 1) rotate(0) translate(4 101)">
<title>/github/workspace/OOP/04_Move_Constructor/src/Copy.cpp</title>
<!-- Node1 -->
<g id="Node000001" class="node">
<title>Node1</title>
<g id="a_Node000001"><a xlink:title=" ">
<polygon fill="#999999" stroke="#666666" points="120.25,-97 0,-97 0,-55.25 120.25,-55.25 120.25,-97"/>
<text text-anchor="start" x="8" y="-83.5" font-family="Helvetica,sans-Serif" font-size="10.00">/github/workspace/OOP</text>
<text text-anchor="start" x="8" y="-72.25" font-family="Helvetica,sans-Serif" font-size="10.00">/04_Move_Constructor</text>
<text text-anchor="middle" x="60.12" y="-61" font-family="Helvetica,sans-Serif" font-size="10.00">/src/Copy.cpp</text>
</a>
</g>
</g>
<!-- Node2 -->
<g id="Node000002" class="node">
<title>Node2</title>
<g id="a_Node000002"><a xlink:href="Copy_8h.html" target="_top" xlink:title=" ">
<polygon fill="white" stroke="#666666" points="49.75,-19.25 4.5,-19.25 4.5,0 49.75,0 49.75,-19.25"/>
<text text-anchor="middle" x="27.12" y="-5.75" font-family="Helvetica,sans-Serif" font-size="10.00">Copy.h</text>
</a>
</g>
</g>
<!-- Node1&#45;&gt;Node2 -->
<g id="edge1_Node000001_Node000002" class="edge">
<title>Node1&#45;&gt;Node2</title>
<g id="a_edge1_Node000001_Node000002"><a xlink:title=" ">
<path fill="none" stroke="#63b8ff" d="M49.86,-55.07C45.75,-47.03 41.03,-37.8 36.96,-29.84"/>
<polygon fill="#63b8ff" stroke="#63b8ff" points="40.13,-28.35 32.46,-21.04 33.89,-31.54 40.13,-28.35"/>
</a>
</g>
</g>
<!-- Node3 -->
<g id="Node000003" class="node">
<title>Node3</title>
<g id="a_Node000003"><a xlink:title=" ">
<polygon fill="#e0e0e0" stroke="#999999" points="120.88,-19.25 67.38,-19.25 67.38,0 120.88,0 120.88,-19.25"/>
<text text-anchor="middle" x="94.12" y="-5.75" font-family="Helvetica,sans-Serif" font-size="10.00">iostream</text>
</a>
</g>
</g>
<!-- Node1&#45;&gt;Node3 -->
<g id="edge2_Node000001_Node000003" class="edge">
<title>Node1&#45;&gt;Node3</title>
<g id="a_edge2_Node000001_Node000003"><a xlink:title=" ">
<path fill="none" stroke="#63b8ff" d="M70.7,-55.07C74.94,-47.03 79.8,-37.8 84,-29.84"/>
<polygon fill="#63b8ff" stroke="#63b8ff" points="87.07,-31.51 88.64,-21.03 80.88,-28.25 87.07,-31.51"/>
</a>
</g>
</g>
</g>
</svg>
