<?xml version="1.0" encoding="UTF-8" standalone="no"?>
<!DOCTYPE svg PUBLIC "-//W3C//DTD SVG 1.1//EN"
 "http://www.w3.org/Graphics/SVG/1.1/DTD/svg11.dtd">
<!-- Generated by graphviz version 9.0.0 (20230911.1827)
 -->
<!-- Title: /github/workspace/Inheritance/01_dering_classes_from_existing_one/main.cpp Pages: 1 -->
<svg width="212pt" height="216pt"
 viewBox="0.00 0.00 212.12 215.50" xmlns="http://www.w3.org/2000/svg" xmlns:xlink="http://www.w3.org/1999/xlink">
<g id="graph0" class="graph" transform="scale(1 1) rotate(0) translate(4 211.5)">
<title>/github/workspace/Inheritance/01_dering_classes_from_existing_one/main.cpp</title>
<!-- Node1 -->
<g id="Node000001" class="node">
<title>Node1</title>
<g id="a_Node000001"><a xlink:title=" ">
<polygon fill="#999999" stroke="#666666" points="163.25,-207.5 0.25,-207.5 0.25,-165.75 163.25,-165.75 163.25,-207.5"/>
<text text-anchor="start" x="8.25" y="-194" font-family="Helvetica,sans-Serif" font-size="10.00">/github/workspace/Inheritance</text>
<text text-anchor="start" x="8.25" y="-182.75" font-family="Helvetica,sans-Serif" font-size="10.00">/01_dering_classes_from_existing</text>
<text text-anchor="middle" x="81.75" y="-171.5" font-family="Helvetica,sans-Serif" font-size="10.00">_one/main.cpp</text>
</a>
</g>
</g>
<!-- Node2 -->
<g id="Node000002" class="node">
<title>Node2</title>
<g id="a_Node000002"><a xlink:title=" ">
<polygon fill="#e0e0e0" stroke="#999999" points="53.5,-129.75 0,-129.75 0,-110.5 53.5,-110.5 53.5,-129.75"/>
<text text-anchor="middle" x="26.75" y="-116.25" font-family="Helvetica,sans-Serif" font-size="10.00">iostream</text>
</a>
</g>
</g>
<!-- Node1&#45;&gt;Node2 -->
<g id="edge1_Node000001_Node000002" class="edge">
<title>Node1&#45;&gt;Node2</title>
<g id="a_edge1_Node000001_Node000002"><a xlink:title=" ">
<path fill="none" stroke="#63b8ff" d="M64.65,-165.57C57.32,-156.97 48.83,-147.02 41.75,-138.71"/>
<polygon fill="#63b8ff" stroke="#63b8ff" points="44.62,-136.69 35.47,-131.35 39.29,-141.23 44.62,-136.69"/>
</a>
</g>
</g>
<!-- Node3 -->
<g id="Node000003" class="node">
<title>Node3</title>
<g id="a_Node000003"><a xlink:href="Account_8h.html" target="_top" xlink:title=" ">
<polygon fill="white" stroke="#666666" points="148.5,-74.5 89,-74.5 89,-55.25 148.5,-55.25 148.5,-74.5"/>
<text text-anchor="middle" x="118.75" y="-61" font-family="Helvetica,sans-Serif" font-size="10.00">Account.h</text>
</a>
</g>
</g>
<!-- Node1&#45;&gt;Node3 -->
<g id="edge2_Node000001_Node000003" class="edge">
<title>Node1&#45;&gt;Node3</title>
<g id="a_edge2_Node000001_Node000003"><a xlink:title=" ">
<path fill="none" stroke="#63b8ff" d="M86.1,-165.32C89.55,-150.09 94.78,-128.79 100.75,-110.5 103.47,-102.17 106.98,-93.17 110.18,-85.45"/>
<polygon fill="#63b8ff" stroke="#63b8ff" points="113.36,-86.93 114.06,-76.36 106.92,-84.19 113.36,-86.93"/>
</a>
</g>
</g>
<!-- Node5 -->
<g id="Node000005" class="node">
<title>Node5</title>
<g id="a_Node000005"><a xlink:href="Saving__Account_8h.html" target="_top" xlink:title=" ">
<polygon fill="white" stroke="#666666" points="204.12,-129.75 109.38,-129.75 109.38,-110.5 204.12,-110.5 204.12,-129.75"/>
<text text-anchor="middle" x="156.75" y="-116.25" font-family="Helvetica,sans-Serif" font-size="10.00">Saving_Account.h</text>
</a>
</g>
</g>
<!-- Node1&#45;&gt;Node5 -->
<g id="edge4_Node000001_Node000005" class="edge">
<title>Node1&#45;&gt;Node5</title>
<g id="a_edge4_Node000001_Node000005"><a xlink:title=" ">
<path fill="none" stroke="#63b8ff" d="M105.07,-165.57C115.5,-156.6 127.64,-146.16 137.53,-137.65"/>
<polygon fill="#63b8ff" stroke="#63b8ff" points="139.76,-140.36 145.06,-131.18 135.19,-135.05 139.76,-140.36"/>
</a>
</g>
</g>
<!-- Node4 -->
<g id="Node000004" class="node">
<title>Node4</title>
<g id="a_Node000004"><a xlink:title=" ">
<polygon fill="#e0e0e0" stroke="#999999" points="138.75,-19.25 98.75,-19.25 98.75,0 138.75,0 138.75,-19.25"/>
<text text-anchor="middle" x="118.75" y="-5.75" font-family="Helvetica,sans-Serif" font-size="10.00">string</text>
</a>
</g>
</g>
<!-- Node3&#45;&gt;Node4 -->
<g id="edge3_Node000003_Node000004" class="edge">
<title>Node3&#45;&gt;Node4</title>
<g id="a_edge3_Node000003_Node000004"><a xlink:title=" ">
<path fill="none" stroke="#63b8ff" d="M118.75,-55.08C118.75,-48.57 118.75,-39.42 118.75,-31.12"/>
<polygon fill="#63b8ff" stroke="#63b8ff" points="122.25,-31.12 118.75,-21.12 115.25,-31.12 122.25,-31.12"/>
</a>
</g>
</g>
<!-- Node5&#45;&gt;Node3 -->
<g id="edge5_Node000005_Node000003" class="edge">
<title>Node5&#45;&gt;Node3</title>
<g id="a_edge5_Node000005_Node000003"><a xlink:title=" ">
<path fill="none" stroke="#63b8ff" d="M150.48,-110.33C145.39,-103.21 138.05,-92.93 131.72,-84.05"/>
<polygon fill="#63b8ff" stroke="#63b8ff" points="134.7,-82.2 126.04,-76.09 129,-86.26 134.7,-82.2"/>
</a>
</g>
</g>
</g>
</svg>
