<?xml version="1.0" encoding="UTF-8" standalone="no"?>
<!DOCTYPE svg PUBLIC "-//W3C//DTD SVG 1.1//EN"
 "http://www.w3.org/Graphics/SVG/1.1/DTD/svg11.dtd">
<!-- Generated by graphviz version 9.0.0 (20230911.1827)
 -->
<!-- Title: /github/workspace/OOP/03_copy_constructor/main_deep.cpp Pages: 1 -->
<svg width="128pt" height="160pt"
 viewBox="0.00 0.00 128.25 160.25" xmlns="http://www.w3.org/2000/svg" xmlns:xlink="http://www.w3.org/1999/xlink">
<g id="graph0" class="graph" transform="scale(1 1) rotate(0) translate(4 156.25)">
<title>/github/workspace/OOP/03_copy_constructor/main_deep.cpp</title>
<!-- Node1 -->
<g id="Node000001" class="node">
<title>Node1</title>
<g id="a_Node000001"><a xlink:title=" ">
<polygon fill="#999999" stroke="#666666" points="120.25,-152.25 0,-152.25 0,-110.5 120.25,-110.5 120.25,-152.25"/>
<text text-anchor="start" x="8" y="-138.75" font-family="Helvetica,sans-Serif" font-size="10.00">/github/workspace/OOP</text>
<text text-anchor="start" x="8" y="-127.5" font-family="Helvetica,sans-Serif" font-size="10.00">/03_copy_constructor</text>
<text text-anchor="middle" x="60.12" y="-116.25" font-family="Helvetica,sans-Serif" font-size="10.00">/main_deep.cpp</text>
</a>
</g>
</g>
<!-- Node2 -->
<g id="Node000002" class="node">
<title>Node2</title>
<g id="a_Node000002"><a xlink:href="deep_8cpp.html" target="_top" xlink:title=" ">
<polygon fill="white" stroke="#666666" points="95.88,-74.5 24.38,-74.5 24.38,-55.25 95.88,-55.25 95.88,-74.5"/>
<text text-anchor="middle" x="60.12" y="-61" font-family="Helvetica,sans-Serif" font-size="10.00">src/deep.cpp</text>
</a>
</g>
</g>
<!-- Node1&#45;&gt;Node2 -->
<g id="edge1_Node000001_Node000002" class="edge">
<title>Node1&#45;&gt;Node2</title>
<g id="a_edge1_Node000001_Node000002"><a xlink:title=" ">
<path fill="none" stroke="#63b8ff" d="M60.12,-110.32C60.12,-102.65 60.12,-93.89 60.12,-86.2"/>
<polygon fill="#63b8ff" stroke="#63b8ff" points="63.63,-86.46 60.13,-76.46 56.63,-86.46 63.63,-86.46"/>
</a>
</g>
</g>
<!-- Node3 -->
<g id="Node000003" class="node">
<title>Node3</title>
<g id="a_Node000003"><a xlink:title=" ">
<polygon fill="#e0e0e0" stroke="#999999" points="86.88,-19.25 33.38,-19.25 33.38,0 86.88,0 86.88,-19.25"/>
<text text-anchor="middle" x="60.12" y="-5.75" font-family="Helvetica,sans-Serif" font-size="10.00">iostream</text>
</a>
</g>
</g>
<!-- Node2&#45;&gt;Node3 -->
<g id="edge2_Node000002_Node000003" class="edge">
<title>Node2&#45;&gt;Node3</title>
<g id="a_edge2_Node000002_Node000003"><a xlink:title=" ">
<path fill="none" stroke="#63b8ff" d="M60.12,-55.08C60.12,-48.57 60.12,-39.42 60.12,-31.12"/>
<polygon fill="#63b8ff" stroke="#63b8ff" points="63.63,-31.12 60.13,-21.12 56.63,-31.12 63.63,-31.12"/>
</a>
</g>
</g>
</g>
</svg>
