<?xml version="1.0" encoding="UTF-8" standalone="no"?>
<!DOCTYPE svg PUBLIC "-//W3C//DTD SVG 1.1//EN"
 "http://www.w3.org/Graphics/SVG/1.1/DTD/svg11.dtd">
<!-- Generated by graphviz version 9.0.0 (20230911.1827)
 -->
<!-- Title: /github/workspace/OOP/03_copy_constructor/main_shallow.cpp Pages: 1 -->
<svg width="145pt" height="160pt"
 viewBox="0.00 0.00 144.88 160.25" xmlns="http://www.w3.org/2000/svg" xmlns:xlink="http://www.w3.org/1999/xlink">
<g id="graph0" class="graph" transform="scale(1 1) rotate(0) translate(4 156.25)">
<title>/github/workspace/OOP/03_copy_constructor/main_shallow.cpp</title>
<!-- Node1 -->
<g id="Node000001" class="node">
<title>Node1</title>
<g id="a_Node000001"><a xlink:title=" ">
<polygon fill="#999999" stroke="#666666" points="120.25,-152.25 0,-152.25 0,-110.5 120.25,-110.5 120.25,-152.25"/>
<text text-anchor="start" x="8" y="-138.75" font-family="Helvetica,sans-Serif" font-size="10.00">/github/workspace/OOP</text>
<text text-anchor="start" x="8" y="-127.5" font-family="Helvetica,sans-Serif" font-size="10.00">/03_copy_constructor</text>
<text text-anchor="middle" x="60.12" y="-116.25" font-family="Helvetica,sans-Serif" font-size="10.00">/main_shallow.cpp</text>
</a>
</g>
</g>
<!-- Node2 -->
<g id="Node000002" class="node">
<title>Node2</title>
<g id="a_Node000002"><a xlink:title=" ">
<polygon fill="#e0e0e0" stroke="#999999" points="86.88,-19.25 33.38,-19.25 33.38,0 86.88,0 86.88,-19.25"/>
<text text-anchor="middle" x="60.12" y="-5.75" font-family="Helvetica,sans-Serif" font-size="10.00">iostream</text>
</a>
</g>
</g>
<!-- Node1&#45;&gt;Node2 -->
<g id="edge1_Node000001_Node000002" class="edge">
<title>Node1&#45;&gt;Node2</title>
<g id="a_edge1_Node000001_Node000002"><a xlink:title=" ">
<path fill="none" stroke="#63b8ff" d="M51.5,-110.05C46.16,-94.98 40.88,-73.91 44.12,-55.25 45.6,-46.74 48.56,-37.71 51.53,-30.02"/>
<polygon fill="#63b8ff" stroke="#63b8ff" points="54.67,-31.58 55.28,-21 48.21,-28.89 54.67,-31.58"/>
</a>
</g>
</g>
<!-- Node3 -->
<g id="Node000003" class="node">
<title>Node3</title>
<g id="a_Node000003"><a xlink:href="shallow_8cpp.html" target="_top" xlink:title=" ">
<polygon fill="white" stroke="#666666" points="136.88,-74.5 53.38,-74.5 53.38,-55.25 136.88,-55.25 136.88,-74.5"/>
<text text-anchor="middle" x="95.12" y="-61" font-family="Helvetica,sans-Serif" font-size="10.00">src/shallow.cpp</text>
</a>
</g>
</g>
<!-- Node1&#45;&gt;Node3 -->
<g id="edge2_Node000001_Node000003" class="edge">
<title>Node1&#45;&gt;Node3</title>
<g id="a_edge2_Node000001_Node000003"><a xlink:title=" ">
<path fill="none" stroke="#63b8ff" d="M71.01,-110.32C75.42,-102.18 80.5,-92.83 84.85,-84.82"/>
<polygon fill="#63b8ff" stroke="#63b8ff" points="87.79,-86.73 89.48,-76.28 81.64,-83.4 87.79,-86.73"/>
</a>
</g>
</g>
<!-- Node3&#45;&gt;Node2 -->
<g id="edge3_Node000003_Node000002" class="edge">
<title>Node3&#45;&gt;Node2</title>
<g id="a_edge3_Node000003_Node000002"><a xlink:title=" ">
<path fill="none" stroke="#63b8ff" d="M89.35,-55.08C84.71,-48.03 78.05,-37.9 72.26,-29.08"/>
<polygon fill="#63b8ff" stroke="#63b8ff" points="75.28,-27.31 66.86,-20.87 69.43,-31.15 75.28,-27.31"/>
</a>
</g>
</g>
</g>
</svg>
