<?xml version="1.0" encoding="UTF-8" standalone="no"?>
<!DOCTYPE svg PUBLIC "-//W3C//DTD SVG 1.1//EN"
 "http://www.w3.org/Graphics/SVG/1.1/DTD/svg11.dtd">
<!-- Generated by graphviz version 9.0.0 (20230911.1827)
 -->
<!-- Title: /github/workspace/OOP/04_Move_Constructor/src/Move.cpp Pages: 1 -->
<svg width="130pt" height="105pt"
 viewBox="0.00 0.00 129.88 105.00" xmlns="http://www.w3.org/2000/svg" xmlns:xlink="http://www.w3.org/1999/xlink">
<g id="graph0" class="graph" transform="scale(1 1) rotate(0) translate(4 101)">
<title>/github/workspace/OOP/04_Move_Constructor/src/Move.cpp</title>
<!-- Node1 -->
<g id="Node000001" class="node">
<title>Node1</title>
<g id="a_Node000001"><a xlink:title=" ">
<polygon fill="#999999" stroke="#666666" points="120.25,-97 0,-97 0,-55.25 120.25,-55.25 120.25,-97"/>
<text text-anchor="start" x="8" y="-83.5" font-family="Helvetica,sans-Serif" font-size="10.00">/github/workspace/OOP</text>
<text text-anchor="start" x="8" y="-72.25" font-family="Helvetica,sans-Serif" font-size="10.00">/04_Move_Constructor</text>
<text text-anchor="middle" x="60.12" y="-61" font-family="Helvetica,sans-Serif" font-size="10.00">/src/Move.cpp</text>
</a>
</g>
</g>
<!-- Node2 -->
<g id="Node000002" class="node">
<title>Node2</title>
<g id="a_Node000002"><a xlink:href="Move_8h.html" target="_top" xlink:title=" ">
<polygon fill="white" stroke="#666666" points="49.88,-19.25 2.38,-19.25 2.38,0 49.88,0 49.88,-19.25"/>
<text text-anchor="middle" x="26.12" y="-5.75" font-family="Helvetica,sans-Serif" font-size="10.00">Move.h</text>
</a>
</g>
</g>
<!-- Node1&#45;&gt;Node2 -->
<g id="edge1_Node000001_Node000002" class="edge">
<title>Node1&#45;&gt;Node2</title>
<g id="a_edge1_Node000001_Node000002"><a xlink:title=" ">
<path fill="none" stroke="#63b8ff" d="M49.55,-55.07C45.31,-47.03 40.45,-37.8 36.25,-29.84"/>
<polygon fill="#63b8ff" stroke="#63b8ff" points="39.37,-28.25 31.61,-21.03 33.18,-31.51 39.37,-28.25"/>
</a>
</g>
</g>
<!-- Node3 -->
<g id="Node000003" class="node">
<title>Node3</title>
<g id="a_Node000003"><a xlink:title=" ">
<polygon fill="#e0e0e0" stroke="#999999" points="121.88,-19.25 68.38,-19.25 68.38,0 121.88,0 121.88,-19.25"/>
<text text-anchor="middle" x="95.12" y="-5.75" font-family="Helvetica,sans-Serif" font-size="10.00">iostream</text>
</a>
</g>
</g>
<!-- Node1&#45;&gt;Node3 -->
<g id="edge2_Node000001_Node000003" class="edge">
<title>Node1&#45;&gt;Node3</title>
<g id="a_edge2_Node000001_Node000003"><a xlink:title=" ">
<path fill="none" stroke="#63b8ff" d="M71.01,-55.07C75.42,-46.93 80.5,-37.58 84.85,-29.57"/>
<polygon fill="#63b8ff" stroke="#63b8ff" points="87.79,-31.48 89.48,-21.03 81.64,-28.15 87.79,-31.48"/>
</a>
</g>
</g>
</g>
</svg>
