<?xml version="1.0" encoding="UTF-8" standalone="no"?>
<!DOCTYPE svg PUBLIC "-//W3C//DTD SVG 1.1//EN"
 "http://www.w3.org/Graphics/SVG/1.1/DTD/svg11.dtd">
<!-- Generated by graphviz version 9.0.0 (20230911.1827)
 -->
<!-- Title: /github/workspace/Operator_overloading/src/Mystring.cpp Pages: 1 -->
<svg width="170pt" height="149pt"
 viewBox="0.00 0.00 169.75 149.00" xmlns="http://www.w3.org/2000/svg" xmlns:xlink="http://www.w3.org/1999/xlink">
<g id="graph0" class="graph" transform="scale(1 1) rotate(0) translate(4 145)">
<title>/github/workspace/Operator_overloading/src/Mystring.cpp</title>
<!-- Node1 -->
<g id="Node000001" class="node">
<title>Node1</title>
<g id="a_Node000001"><a xlink:title=" ">
<polygon fill="#999999" stroke="#666666" points="160.62,-141 15.62,-141 15.62,-110.5 160.62,-110.5 160.62,-141"/>
<text text-anchor="start" x="23.62" y="-127.5" font-family="Helvetica,sans-Serif" font-size="10.00">/github/workspace/Operator</text>
<text text-anchor="middle" x="88.12" y="-116.25" font-family="Helvetica,sans-Serif" font-size="10.00">_overloading/src/Mystring.cpp</text>
</a>
</g>
</g>
<!-- Node2 -->
<g id="Node000002" class="node">
<title>Node2</title>
<g id="a_Node000002"><a xlink:href="Mystring_8h.html" target="_top" xlink:title=" ">
<polygon fill="white" stroke="#666666" points="60.25,-74.5 0,-74.5 0,-55.25 60.25,-55.25 60.25,-74.5"/>
<text text-anchor="middle" x="30.12" y="-61" font-family="Helvetica,sans-Serif" font-size="10.00">Mystring.h</text>
</a>
</g>
</g>
<!-- Node1&#45;&gt;Node2 -->
<g id="edge1_Node000001_Node000002" class="edge">
<title>Node1&#45;&gt;Node2</title>
<g id="a_edge1_Node000001_Node000002"><a xlink:title=" ">
<path fill="none" stroke="#63b8ff" d="M73.79,-110.2C65.72,-102.01 55.6,-91.73 47.13,-83.14"/>
<polygon fill="#63b8ff" stroke="#63b8ff" points="49.64,-80.7 40.13,-76.03 44.65,-85.61 49.64,-80.7"/>
</a>
</g>
</g>
<!-- Node3 -->
<g id="Node000003" class="node">
<title>Node3</title>
<g id="a_Node000003"><a xlink:title=" ">
<polygon fill="#e0e0e0" stroke="#999999" points="85.88,-19.25 32.38,-19.25 32.38,0 85.88,0 85.88,-19.25"/>
<text text-anchor="middle" x="59.12" y="-5.75" font-family="Helvetica,sans-Serif" font-size="10.00">iostream</text>
</a>
</g>
</g>
<!-- Node1&#45;&gt;Node3 -->
<g id="edge4_Node000001_Node000003" class="edge">
<title>Node1&#45;&gt;Node3</title>
<g id="a_edge4_Node000001_Node000003"><a xlink:title=" ">
<path fill="none" stroke="#63b8ff" d="M84.45,-110.3C79.33,-90.15 70.03,-53.56 64.24,-30.75"/>
<polygon fill="#63b8ff" stroke="#63b8ff" points="67.66,-29.99 61.8,-21.16 60.87,-31.72 67.66,-29.99"/>
</a>
</g>
</g>
<!-- Node4 -->
<g id="Node000004" class="node">
<title>Node4</title>
<g id="a_Node000004"><a xlink:title=" ">
<polygon fill="#e0e0e0" stroke="#999999" points="161.75,-74.5 116.5,-74.5 116.5,-55.25 161.75,-55.25 161.75,-74.5"/>
<text text-anchor="middle" x="139.12" y="-61" font-family="Helvetica,sans-Serif" font-size="10.00">cstring</text>
</a>
</g>
</g>
<!-- Node1&#45;&gt;Node4 -->
<g id="edge3_Node000001_Node000004" class="edge">
<title>Node1&#45;&gt;Node4</title>
<g id="a_edge3_Node000001_Node000004"><a xlink:title=" ">
<path fill="none" stroke="#63b8ff" d="M100.73,-110.2C107.75,-102.09 116.54,-91.95 123.93,-83.41"/>
<polygon fill="#63b8ff" stroke="#63b8ff" points="126.37,-85.95 130.27,-76.1 121.08,-81.36 126.37,-85.95"/>
</a>
</g>
</g>
<!-- Node2&#45;&gt;Node3 -->
<g id="edge2_Node000002_Node000003" class="edge">
<title>Node2&#45;&gt;Node3</title>
<g id="a_edge2_Node000002_Node000003"><a xlink:title=" ">
<path fill="none" stroke="#63b8ff" d="M34.91,-55.08C38.67,-48.19 44.03,-38.34 48.76,-29.66"/>
<polygon fill="#63b8ff" stroke="#63b8ff" points="51.8,-31.39 53.51,-20.94 45.65,-28.05 51.8,-31.39"/>
</a>
</g>
</g>
</g>
</svg>
