<?xml version="1.0" encoding="UTF-8" standalone="no"?>
<!DOCTYPE svg PUBLIC "-//W3C//DTD SVG 1.1//EN"
 "http://www.w3.org/Graphics/SVG/1.1/DTD/svg11.dtd">
<!-- Generated by graphviz version 9.0.0 (20230911.1827)
 -->
<!-- Title: /github/workspace/OOP/07_static_class_memeber/main.cpp Pages: 1 -->
<svg width="141pt" height="216pt"
 viewBox="0.00 0.00 141.00 215.50" xmlns="http://www.w3.org/2000/svg" xmlns:xlink="http://www.w3.org/1999/xlink">
<g id="graph0" class="graph" transform="scale(1 1) rotate(0) translate(4 211.5)">
<title>/github/workspace/OOP/07_static_class_memeber/main.cpp</title>
<!-- Node1 -->
<g id="Node000001" class="node">
<title>Node1</title>
<g id="a_Node000001"><a xlink:title=" ">
<polygon fill="#999999" stroke="#666666" points="133,-207.5 0,-207.5 0,-165.75 133,-165.75 133,-207.5"/>
<text text-anchor="start" x="8" y="-194" font-family="Helvetica,sans-Serif" font-size="10.00">/github/workspace/OOP</text>
<text text-anchor="start" x="8" y="-182.75" font-family="Helvetica,sans-Serif" font-size="10.00">/07_static_class_memeber</text>
<text text-anchor="middle" x="66.5" y="-171.5" font-family="Helvetica,sans-Serif" font-size="10.00">/main.cpp</text>
</a>
</g>
</g>
<!-- Node2 -->
<g id="Node000002" class="node">
<title>Node2</title>
<g id="a_Node000002"><a xlink:title=" ">
<polygon fill="#e0e0e0" stroke="#999999" points="90.25,-19.25 36.75,-19.25 36.75,0 90.25,0 90.25,-19.25"/>
<text text-anchor="middle" x="63.5" y="-5.75" font-family="Helvetica,sans-Serif" font-size="10.00">iostream</text>
</a>
</g>
</g>
<!-- Node1&#45;&gt;Node2 -->
<g id="edge1_Node000001_Node000002" class="edge">
<title>Node1&#45;&gt;Node2</title>
<g id="a_edge1_Node000001_Node000002"><a xlink:title=" ">
<path fill="none" stroke="#63b8ff" d="M61.97,-165.31C59.85,-154.76 57.55,-141.63 56.5,-129.75 54.78,-110.39 59.02,-61.86 59.5,-55.25 60.07,-47.3 60.83,-38.56 61.53,-30.94"/>
<polygon fill="#63b8ff" stroke="#63b8ff" points="65.01,-31.3 62.47,-21.01 58.04,-30.64 65.01,-31.3"/>
</a>
</g>
</g>
<!-- Node3 -->
<g id="Node000003" class="node">
<title>Node3</title>
<g id="a_Node000003"><a xlink:href="Static_8cpp.html" target="_top" xlink:title=" ">
<polygon fill="white" stroke="#666666" points="125.25,-129.75 65.75,-129.75 65.75,-110.5 125.25,-110.5 125.25,-129.75"/>
<text text-anchor="middle" x="95.5" y="-116.25" font-family="Helvetica,sans-Serif" font-size="10.00">Static.cpp</text>
</a>
</g>
</g>
<!-- Node1&#45;&gt;Node3 -->
<g id="edge2_Node000001_Node000003" class="edge">
<title>Node1&#45;&gt;Node3</title>
<g id="a_edge2_Node000001_Node000003"><a xlink:title=" ">
<path fill="none" stroke="#63b8ff" d="M75.52,-165.57C79.09,-157.62 83.19,-148.51 86.74,-140.61"/>
<polygon fill="#63b8ff" stroke="#63b8ff" points="89.89,-142.13 90.8,-131.58 83.51,-139.26 89.89,-142.13"/>
</a>
</g>
</g>
<!-- Node4 -->
<g id="Node000004" class="node">
<title>Node4</title>
<g id="a_Node000004"><a xlink:href="Static_8h.html" target="_top" xlink:title=" ">
<polygon fill="white" stroke="#666666" points="117,-74.5 68,-74.5 68,-55.25 117,-55.25 117,-74.5"/>
<text text-anchor="middle" x="92.5" y="-61" font-family="Helvetica,sans-Serif" font-size="10.00">Static.h</text>
</a>
</g>
</g>
<!-- Node3&#45;&gt;Node4 -->
<g id="edge3_Node000003_Node000004" class="edge">
<title>Node3&#45;&gt;Node4</title>
<g id="a_edge3_Node000003_Node000004"><a xlink:title=" ">
<path fill="none" stroke="#63b8ff" d="M95,-110.33C94.63,-103.74 94.11,-94.46 93.64,-86.07"/>
<polygon fill="#63b8ff" stroke="#63b8ff" points="97.15,-86.16 93.09,-76.37 90.16,-86.55 97.15,-86.16"/>
</a>
</g>
</g>
<!-- Node4&#45;&gt;Node2 -->
<g id="edge4_Node000004_Node000002" class="edge">
<title>Node4&#45;&gt;Node2</title>
<g id="a_edge4_Node000004_Node000002"><a xlink:title=" ">
<path fill="none" stroke="#63b8ff" d="M87.71,-55.08C83.96,-48.19 78.59,-38.34 73.87,-29.66"/>
<polygon fill="#63b8ff" stroke="#63b8ff" points="76.97,-28.05 69.12,-20.94 70.83,-31.39 76.97,-28.05"/>
</a>
</g>
</g>
</g>
</svg>
