<?xml version="1.0" encoding="UTF-8" standalone="no"?>
<!DOCTYPE svg PUBLIC "-//W3C//DTD SVG 1.1//EN"
 "http://www.w3.org/Graphics/SVG/1.1/DTD/svg11.dtd">
<!-- Generated by graphviz version 9.0.0 (20230911.1827)
 -->
<!-- Title: /github/workspace/OOP/03_copy_constructor/main.cpp Pages: 1 -->
<svg width="136pt" height="160pt"
 viewBox="0.00 0.00 136.25 160.25" xmlns="http://www.w3.org/2000/svg" xmlns:xlink="http://www.w3.org/1999/xlink">
<g id="graph0" class="graph" transform="scale(1 1) rotate(0) translate(4 156.25)">
<title>/github/workspace/OOP/03_copy_constructor/main.cpp</title>
<!-- Node1 -->
<g id="Node000001" class="node">
<title>Node1</title>
<g id="a_Node000001"><a xlink:title=" ">
<polygon fill="#999999" stroke="#666666" points="120.25,-152.25 0,-152.25 0,-110.5 120.25,-110.5 120.25,-152.25"/>
<text text-anchor="start" x="8" y="-138.75" font-family="Helvetica,sans-Serif" font-size="10.00">/github/workspace/OOP</text>
<text text-anchor="start" x="8" y="-127.5" font-family="Helvetica,sans-Serif" font-size="10.00">/03_copy_constructor</text>
<text text-anchor="middle" x="60.12" y="-116.25" font-family="Helvetica,sans-Serif" font-size="10.00">/main.cpp</text>
</a>
</g>
</g>
<!-- Node2 -->
<g id="Node000002" class="node">
<title>Node2</title>
<g id="a_Node000002"><a xlink:title=" ">
<polygon fill="#e0e0e0" stroke="#999999" points="54.88,-19.25 1.38,-19.25 1.38,0 54.88,0 54.88,-19.25"/>
<text text-anchor="middle" x="28.12" y="-5.75" font-family="Helvetica,sans-Serif" font-size="10.00">iostream</text>
</a>
</g>
</g>
<!-- Node1&#45;&gt;Node2 -->
<g id="edge1_Node000001_Node000002" class="edge">
<title>Node1&#45;&gt;Node2</title>
<g id="a_edge1_Node000001_Node000002"><a xlink:title=" ">
<path fill="none" stroke="#63b8ff" d="M54.7,-110.06C48.77,-87.87 39.33,-52.55 33.44,-30.52"/>
<polygon fill="#63b8ff" stroke="#63b8ff" points="36.87,-29.77 30.9,-21.02 30.1,-31.58 36.87,-29.77"/>
</a>
</g>
</g>
<!-- Node3 -->
<g id="Node000003" class="node">
<title>Node3</title>
<g id="a_Node000003"><a xlink:href="gatto_8cpp.html" target="_top" xlink:title=" ">
<polygon fill="white" stroke="#666666" points="128.25,-74.5 56,-74.5 56,-55.25 128.25,-55.25 128.25,-74.5"/>
<text text-anchor="middle" x="92.12" y="-61" font-family="Helvetica,sans-Serif" font-size="10.00">src/gatto.cpp</text>
</a>
</g>
</g>
<!-- Node1&#45;&gt;Node3 -->
<g id="edge2_Node000001_Node000003" class="edge">
<title>Node1&#45;&gt;Node3</title>
<g id="a_edge2_Node000001_Node000003"><a xlink:title=" ">
<path fill="none" stroke="#63b8ff" d="M70.07,-110.32C74.07,-102.28 78.64,-93.05 82.59,-85.09"/>
<polygon fill="#63b8ff" stroke="#63b8ff" points="85.64,-86.81 86.95,-76.3 79.37,-83.7 85.64,-86.81"/>
</a>
</g>
</g>
<!-- Node3&#45;&gt;Node2 -->
<g id="edge3_Node000003_Node000002" class="edge">
<title>Node3&#45;&gt;Node2</title>
<g id="a_edge3_Node000003_Node000002"><a xlink:title=" ">
<path fill="none" stroke="#63b8ff" d="M81.27,-54.84C72.02,-47.15 58.5,-35.9 47.42,-26.68"/>
<polygon fill="#63b8ff" stroke="#63b8ff" points="49.91,-24.2 39.98,-20.49 45.43,-29.58 49.91,-24.2"/>
</a>
</g>
</g>
<!-- Node4 -->
<g id="Node000004" class="node">
<title>Node4</title>
<g id="a_Node000004"><a xlink:title=" ">
<polygon fill="#e0e0e0" stroke="#999999" points="113.12,-19.25 73.12,-19.25 73.12,0 113.12,0 113.12,-19.25"/>
<text text-anchor="middle" x="93.12" y="-5.75" font-family="Helvetica,sans-Serif" font-size="10.00">string</text>
</a>
</g>
</g>
<!-- Node3&#45;&gt;Node4 -->
<g id="edge4_Node000003_Node000004" class="edge">
<title>Node3&#45;&gt;Node4</title>
<g id="a_edge4_Node000003_Node000004"><a xlink:title=" ">
<path fill="none" stroke="#63b8ff" d="M92.29,-55.08C92.41,-48.57 92.58,-39.42 92.74,-31.12"/>
<polygon fill="#63b8ff" stroke="#63b8ff" points="96.24,-31.19 92.93,-21.12 89.24,-31.05 96.24,-31.19"/>
</a>
</g>
</g>
</g>
</svg>
