<?xml version="1.0" encoding="UTF-8" standalone="no"?>
<!DOCTYPE svg PUBLIC "-//W3C//DTD SVG 1.1//EN"
 "http://www.w3.org/Graphics/SVG/1.1/DTD/svg11.dtd">
<!-- Generated by graphviz version 9.0.0 (20230911.1827)
 -->
<!-- Title: /github/workspace/OOP/02_Costructor_initialization_list/main.cpp Pages: 1 -->
<svg width="215pt" height="160pt"
 viewBox="0.00 0.00 215.25 160.25" xmlns="http://www.w3.org/2000/svg" xmlns:xlink="http://www.w3.org/1999/xlink">
<g id="graph0" class="graph" transform="scale(1 1) rotate(0) translate(4 156.25)">
<title>/github/workspace/OOP/02_Costructor_initialization_list/main.cpp</title>
<!-- Node1 -->
<g id="Node000001" class="node">
<title>Node1</title>
<g id="a_Node000001"><a xlink:title=" ">
<polygon fill="#999999" stroke="#666666" points="171.25,-152.25 36,-152.25 36,-110.5 171.25,-110.5 171.25,-152.25"/>
<text text-anchor="start" x="44" y="-138.75" font-family="Helvetica,sans-Serif" font-size="10.00">/github/workspace/OOP</text>
<text text-anchor="start" x="44" y="-127.5" font-family="Helvetica,sans-Serif" font-size="10.00">/02_Costructor_initialization</text>
<text text-anchor="middle" x="103.62" y="-116.25" font-family="Helvetica,sans-Serif" font-size="10.00">_list/main.cpp</text>
</a>
</g>
</g>
<!-- Node2 -->
<g id="Node000002" class="node">
<title>Node2</title>
<g id="a_Node000002"><a xlink:href="A_8cpp.html" target="_top" xlink:title=" ">
<polygon fill="white" stroke="#666666" points="57.25,-74.5 0,-74.5 0,-55.25 57.25,-55.25 57.25,-74.5"/>
<text text-anchor="middle" x="28.62" y="-61" font-family="Helvetica,sans-Serif" font-size="10.00">src/A.cpp</text>
</a>
</g>
</g>
<!-- Node1&#45;&gt;Node2 -->
<g id="edge1_Node000001_Node000002" class="edge">
<title>Node1&#45;&gt;Node2</title>
<g id="a_edge1_Node000001_Node000002"><a xlink:title=" ">
<path fill="none" stroke="#63b8ff" d="M80.31,-110.32C69.88,-101.35 57.73,-90.91 47.84,-82.4"/>
<polygon fill="#63b8ff" stroke="#63b8ff" points="50.18,-79.8 40.32,-75.93 45.62,-85.11 50.18,-79.8"/>
</a>
</g>
</g>
<!-- Node5 -->
<g id="Node000005" class="node">
<title>Node5</title>
<g id="a_Node000005"><a xlink:href="B_8cpp.html" target="_top" xlink:title=" ">
<polygon fill="white" stroke="#666666" points="132.25,-74.5 75,-74.5 75,-55.25 132.25,-55.25 132.25,-74.5"/>
<text text-anchor="middle" x="103.62" y="-61" font-family="Helvetica,sans-Serif" font-size="10.00">src/B.cpp</text>
</a>
</g>
</g>
<!-- Node1&#45;&gt;Node5 -->
<g id="edge4_Node000001_Node000005" class="edge">
<title>Node1&#45;&gt;Node5</title>
<g id="a_edge4_Node000001_Node000005"><a xlink:title=" ">
<path fill="none" stroke="#63b8ff" d="M103.62,-110.32C103.62,-102.65 103.62,-93.89 103.62,-86.2"/>
<polygon fill="#63b8ff" stroke="#63b8ff" points="107.13,-86.46 103.63,-76.46 100.13,-86.46 107.13,-86.46"/>
</a>
</g>
</g>
<!-- Node6 -->
<g id="Node000006" class="node">
<title>Node6</title>
<g id="a_Node000006"><a xlink:href="C_8cpp.html" target="_top" xlink:title=" ">
<polygon fill="white" stroke="#666666" points="207.25,-74.5 150,-74.5 150,-55.25 207.25,-55.25 207.25,-74.5"/>
<text text-anchor="middle" x="178.62" y="-61" font-family="Helvetica,sans-Serif" font-size="10.00">src/C.cpp</text>
</a>
</g>
</g>
<!-- Node1&#45;&gt;Node6 -->
<g id="edge7_Node000001_Node000006" class="edge">
<title>Node1&#45;&gt;Node6</title>
<g id="a_edge7_Node000001_Node000006"><a xlink:title=" ">
<path fill="none" stroke="#63b8ff" d="M126.94,-110.32C137.37,-101.35 149.52,-90.91 159.41,-82.4"/>
<polygon fill="#63b8ff" stroke="#63b8ff" points="161.63,-85.11 166.93,-75.93 157.07,-79.8 161.63,-85.11"/>
</a>
</g>
</g>
<!-- Node3 -->
<g id="Node000003" class="node">
<title>Node3</title>
<g id="a_Node000003"><a xlink:title=" ">
<polygon fill="#e0e0e0" stroke="#999999" points="97.38,-19.25 43.88,-19.25 43.88,0 97.38,0 97.38,-19.25"/>
<text text-anchor="middle" x="70.62" y="-5.75" font-family="Helvetica,sans-Serif" font-size="10.00">iostream</text>
</a>
</g>
</g>
<!-- Node2&#45;&gt;Node3 -->
<g id="edge2_Node000002_Node000003" class="edge">
<title>Node2&#45;&gt;Node3</title>
<g id="a_edge2_Node000002_Node000003"><a xlink:title=" ">
<path fill="none" stroke="#63b8ff" d="M35.56,-55.08C41.24,-47.88 49.46,-37.46 56.52,-28.51"/>
<polygon fill="#63b8ff" stroke="#63b8ff" points="59.16,-30.82 62.6,-20.8 53.66,-26.48 59.16,-30.82"/>
</a>
</g>
</g>
<!-- Node4 -->
<g id="Node000004" class="node">
<title>Node4</title>
<g id="a_Node000004"><a xlink:title=" ">
<polygon fill="#e0e0e0" stroke="#999999" points="155.62,-19.25 115.62,-19.25 115.62,0 155.62,0 155.62,-19.25"/>
<text text-anchor="middle" x="135.62" y="-5.75" font-family="Helvetica,sans-Serif" font-size="10.00">string</text>
</a>
</g>
</g>
<!-- Node2&#45;&gt;Node4 -->
<g id="edge3_Node000002_Node000004" class="edge">
<title>Node2&#45;&gt;Node4</title>
<g id="a_edge3_Node000002_Node000004"><a xlink:title=" ">
<path fill="none" stroke="#63b8ff" d="M46.78,-54.84C63.3,-46.62 87.97,-34.34 107.12,-24.81"/>
<polygon fill="#63b8ff" stroke="#63b8ff" points="108.64,-27.97 116.03,-20.38 105.52,-21.7 108.64,-27.97"/>
</a>
</g>
</g>
<!-- Node5&#45;&gt;Node3 -->
<g id="edge5_Node000005_Node000003" class="edge">
<title>Node5&#45;&gt;Node3</title>
<g id="a_edge5_Node000005_Node000003"><a xlink:title=" ">
<path fill="none" stroke="#63b8ff" d="M98.18,-55.08C93.85,-48.11 87.66,-38.12 82.24,-29.37"/>
<polygon fill="#63b8ff" stroke="#63b8ff" points="85.23,-27.55 76.99,-20.9 79.28,-31.24 85.23,-27.55"/>
</a>
</g>
</g>
<!-- Node5&#45;&gt;Node4 -->
<g id="edge6_Node000005_Node000004" class="edge">
<title>Node5&#45;&gt;Node4</title>
<g id="a_edge6_Node000005_Node000004"><a xlink:title=" ">
<path fill="none" stroke="#63b8ff" d="M108.91,-55.08C113.1,-48.11 119.1,-38.12 124.36,-29.37"/>
<polygon fill="#63b8ff" stroke="#63b8ff" points="127.3,-31.28 129.45,-20.91 121.3,-27.68 127.3,-31.28"/>
</a>
</g>
</g>
<!-- Node6&#45;&gt;Node3 -->
<g id="edge8_Node000006_Node000003" class="edge">
<title>Node6&#45;&gt;Node3</title>
<g id="a_edge8_Node000006_Node000003"><a xlink:title=" ">
<path fill="none" stroke="#63b8ff" d="M160.3,-54.84C143.55,-46.58 118.49,-34.23 99.12,-24.68"/>
<polygon fill="#63b8ff" stroke="#63b8ff" points="100.91,-21.65 90.39,-20.37 97.81,-27.93 100.91,-21.65"/>
</a>
</g>
</g>
<!-- Node6&#45;&gt;Node4 -->
<g id="edge9_Node000006_Node000004" class="edge">
<title>Node6&#45;&gt;Node4</title>
<g id="a_edge9_Node000006_Node000004"><a xlink:title=" ">
<path fill="none" stroke="#63b8ff" d="M171.52,-55.08C165.71,-47.88 157.29,-37.46 150.07,-28.51"/>
<polygon fill="#63b8ff" stroke="#63b8ff" points="152.84,-26.37 143.83,-20.79 147.39,-30.77 152.84,-26.37"/>
</a>
</g>
</g>
</g>
</svg>
