<?xml version="1.0" encoding="UTF-8" standalone="no"?>
<!DOCTYPE svg PUBLIC "-//W3C//DTD SVG 1.1//EN"
 "http://www.w3.org/Graphics/SVG/1.1/DTD/svg11.dtd">
<!-- Generated by graphviz version 9.0.0 (20230911.1827)
 -->
<!-- Title: /github/workspace/OOP/01_Creating_Class_Objects/main.cpp Pages: 1 -->
<svg width="174pt" height="160pt"
 viewBox="0.00 0.00 174.38 160.25" xmlns="http://www.w3.org/2000/svg" xmlns:xlink="http://www.w3.org/1999/xlink">
<g id="graph0" class="graph" transform="scale(1 1) rotate(0) translate(4 156.25)">
<title>/github/workspace/OOP/01_Creating_Class_Objects/main.cpp</title>
<!-- Node1 -->
<g id="Node000001" class="node">
<title>Node1</title>
<g id="a_Node000001"><a xlink:title=" ">
<polygon fill="#999999" stroke="#666666" points="139.75,-152.25 0,-152.25 0,-110.5 139.75,-110.5 139.75,-152.25"/>
<text text-anchor="start" x="8" y="-138.75" font-family="Helvetica,sans-Serif" font-size="10.00">/github/workspace/OOP</text>
<text text-anchor="start" x="8" y="-127.5" font-family="Helvetica,sans-Serif" font-size="10.00">/01_Creating_Class_Objects</text>
<text text-anchor="middle" x="69.88" y="-116.25" font-family="Helvetica,sans-Serif" font-size="10.00">/main.cpp</text>
</a>
</g>
</g>
<!-- Node2 -->
<g id="Node000002" class="node">
<title>Node2</title>
<g id="a_Node000002"><a xlink:title=" ">
<polygon fill="#e0e0e0" stroke="#999999" points="64.62,-19.25 11.12,-19.25 11.12,0 64.62,0 64.62,-19.25"/>
<text text-anchor="middle" x="37.88" y="-5.75" font-family="Helvetica,sans-Serif" font-size="10.00">iostream</text>
</a>
</g>
</g>
<!-- Node1&#45;&gt;Node2 -->
<g id="edge1_Node000001_Node000002" class="edge">
<title>Node1&#45;&gt;Node2</title>
<g id="a_edge1_Node000001_Node000002"><a xlink:title=" ">
<path fill="none" stroke="#63b8ff" d="M61.25,-110.24C57.03,-99.75 52.16,-86.6 48.88,-74.5 44.94,-60 42.12,-43.25 40.32,-30.55"/>
<polygon fill="#63b8ff" stroke="#63b8ff" points="43.83,-30.38 39.05,-20.92 36.89,-31.29 43.83,-30.38"/>
</a>
</g>
</g>
<!-- Node3 -->
<g id="Node000003" class="node">
<title>Node3</title>
<g id="a_Node000003"><a xlink:href="Accounts_8h.html" target="_top" xlink:title=" ">
<polygon fill="white" stroke="#666666" points="166.38,-74.5 57.38,-74.5 57.38,-55.25 166.38,-55.25 166.38,-74.5"/>
<text text-anchor="middle" x="111.88" y="-61" font-family="Helvetica,sans-Serif" font-size="10.00">Accounts/Accounts.h</text>
</a>
</g>
</g>
<!-- Node1&#45;&gt;Node3 -->
<g id="edge2_Node000001_Node000003" class="edge">
<title>Node1&#45;&gt;Node3</title>
<g id="a_edge2_Node000001_Node000003"><a xlink:title=" ">
<path fill="none" stroke="#63b8ff" d="M82.93,-110.32C88.29,-102.09 94.46,-92.62 99.72,-84.54"/>
<polygon fill="#63b8ff" stroke="#63b8ff" points="102.62,-86.5 105.14,-76.21 96.75,-82.68 102.62,-86.5"/>
</a>
</g>
</g>
<!-- Node3&#45;&gt;Node2 -->
<g id="edge3_Node000003_Node000002" class="edge">
<title>Node3&#45;&gt;Node2</title>
<g id="a_edge3_Node000003_Node000002"><a xlink:title=" ">
<path fill="none" stroke="#63b8ff" d="M99.32,-54.84C88.41,-46.99 72.37,-35.45 59.41,-26.12"/>
<polygon fill="#63b8ff" stroke="#63b8ff" points="61.63,-23.41 51.47,-20.41 57.54,-29.09 61.63,-23.41"/>
</a>
</g>
</g>
<!-- Node4 -->
<g id="Node000004" class="node">
<title>Node4</title>
<g id="a_Node000004"><a xlink:title=" ">
<polygon fill="#e0e0e0" stroke="#999999" points="131.88,-19.25 91.88,-19.25 91.88,0 131.88,0 131.88,-19.25"/>
<text text-anchor="middle" x="111.88" y="-5.75" font-family="Helvetica,sans-Serif" font-size="10.00">string</text>
</a>
</g>
</g>
<!-- Node3&#45;&gt;Node4 -->
<g id="edge4_Node000003_Node000004" class="edge">
<title>Node3&#45;&gt;Node4</title>
<g id="a_edge4_Node000003_Node000004"><a xlink:title=" ">
<path fill="none" stroke="#63b8ff" d="M111.88,-55.08C111.88,-48.57 111.88,-39.42 111.88,-31.12"/>
<polygon fill="#63b8ff" stroke="#63b8ff" points="115.38,-31.12 111.88,-21.12 108.38,-31.12 115.38,-31.12"/>
</a>
</g>
</g>
</g>
</svg>
