<?xml version="1.0" encoding="UTF-8" standalone="no"?>
<!DOCTYPE svg PUBLIC "-//W3C//DTD SVG 1.1//EN"
 "http://www.w3.org/Graphics/SVG/1.1/DTD/svg11.dtd">
<!-- Generated by graphviz version 9.0.0 (20230911.1827)
 -->
<!-- Title: /github/workspace/Operator_overloading/main.cpp Pages: 1 -->
<svg width="144pt" height="149pt"
 viewBox="0.00 0.00 144.00 149.00" xmlns="http://www.w3.org/2000/svg" xmlns:xlink="http://www.w3.org/1999/xlink">
<g id="graph0" class="graph" transform="scale(1 1) rotate(0) translate(4 145)">
<title>/github/workspace/Operator_overloading/main.cpp</title>
<!-- Node1 -->
<g id="Node000001" class="node">
<title>Node1</title>
<g id="a_Node000001"><a xlink:title=" ">
<polygon fill="#999999" stroke="#666666" points="136,-141 0,-141 0,-110.5 136,-110.5 136,-141"/>
<text text-anchor="start" x="8" y="-127.5" font-family="Helvetica,sans-Serif" font-size="10.00">/github/workspace/Operator</text>
<text text-anchor="middle" x="68" y="-116.25" font-family="Helvetica,sans-Serif" font-size="10.00">_overloading/main.cpp</text>
</a>
</g>
</g>
<!-- Node2 -->
<g id="Node000002" class="node">
<title>Node2</title>
<g id="a_Node000002"><a xlink:title=" ">
<polygon fill="#e0e0e0" stroke="#999999" points="94.75,-19.25 41.25,-19.25 41.25,0 94.75,0 94.75,-19.25"/>
<text text-anchor="middle" x="68" y="-5.75" font-family="Helvetica,sans-Serif" font-size="10.00">iostream</text>
</a>
</g>
</g>
<!-- Node1&#45;&gt;Node2 -->
<g id="edge1_Node000001_Node000002" class="edge">
<title>Node1&#45;&gt;Node2</title>
<g id="a_edge1_Node000001_Node000002"><a xlink:title=" ">
<path fill="none" stroke="#63b8ff" d="M63.73,-110.14C60.13,-96.1 55.89,-74.27 58,-55.25 58.91,-47.06 60.72,-38.18 62.56,-30.51"/>
<polygon fill="#63b8ff" stroke="#63b8ff" points="65.93,-31.44 65.05,-20.88 59.16,-29.69 65.93,-31.44"/>
</a>
</g>
</g>
<!-- Node3 -->
<g id="Node000003" class="node">
<title>Node3</title>
<g id="a_Node000003"><a xlink:href="Mystring_8h.html" target="_top" xlink:title=" ">
<polygon fill="white" stroke="#666666" points="127.12,-74.5 66.88,-74.5 66.88,-55.25 127.12,-55.25 127.12,-74.5"/>
<text text-anchor="middle" x="97" y="-61" font-family="Helvetica,sans-Serif" font-size="10.00">Mystring.h</text>
</a>
</g>
</g>
<!-- Node1&#45;&gt;Node3 -->
<g id="edge2_Node000001_Node000003" class="edge">
<title>Node1&#45;&gt;Node3</title>
<g id="a_edge2_Node000001_Node000003"><a xlink:title=" ">
<path fill="none" stroke="#63b8ff" d="M75.17,-110.2C78.9,-102.61 83.52,-93.24 87.55,-85.07"/>
<polygon fill="#63b8ff" stroke="#63b8ff" points="90.58,-86.83 91.86,-76.31 84.3,-83.73 90.58,-86.83"/>
</a>
</g>
</g>
<!-- Node3&#45;&gt;Node2 -->
<g id="edge3_Node000003_Node000002" class="edge">
<title>Node3&#45;&gt;Node2</title>
<g id="a_edge3_Node000003_Node000002"><a xlink:title=" ">
<path fill="none" stroke="#63b8ff" d="M92.21,-55.08C88.46,-48.19 83.09,-38.34 78.37,-29.66"/>
<polygon fill="#63b8ff" stroke="#63b8ff" points="81.47,-28.05 73.62,-20.94 75.33,-31.39 81.47,-28.05"/>
</a>
</g>
</g>
</g>
</svg>
