<?xml version="1.0" encoding="UTF-8" standalone="no"?>
<!DOCTYPE svg PUBLIC "-//W3C//DTD SVG 1.1//EN"
 "http://www.w3.org/Graphics/SVG/1.1/DTD/svg11.dtd">
<!-- Generated by graphviz version 9.0.0 (20230911.1827)
 -->
<!-- Title: /github/workspace/OOP/01_Creating_Class_Objects/src/Player.cpp Pages: 1 -->
<svg width="152pt" height="160pt"
 viewBox="0.00 0.00 152.12 160.25" xmlns="http://www.w3.org/2000/svg" xmlns:xlink="http://www.w3.org/1999/xlink">
<g id="graph0" class="graph" transform="scale(1 1) rotate(0) translate(4 156.25)">
<title>/github/workspace/OOP/01_Creating_Class_Objects/src/Player.cpp</title>
<!-- Node1 -->
<g id="Node000001" class="node">
<title>Node1</title>
<g id="a_Node000001"><a xlink:title=" ">
<polygon fill="#999999" stroke="#666666" points="144.12,-152.25 4.38,-152.25 4.38,-110.5 144.12,-110.5 144.12,-152.25"/>
<text text-anchor="start" x="12.38" y="-138.75" font-family="Helvetica,sans-Serif" font-size="10.00">/github/workspace/OOP</text>
<text text-anchor="start" x="12.38" y="-127.5" font-family="Helvetica,sans-Serif" font-size="10.00">/01_Creating_Class_Objects</text>
<text text-anchor="middle" x="74.25" y="-116.25" font-family="Helvetica,sans-Serif" font-size="10.00">/src/Player.cpp</text>
</a>
</g>
</g>
<!-- Node2 -->
<g id="Node000002" class="node">
<title>Node2</title>
<g id="a_Node000002"><a xlink:href="Player_8h.html" target="_top" xlink:title=" ">
<polygon fill="white" stroke="#666666" points="80.5,-74.5 0,-74.5 0,-55.25 80.5,-55.25 80.5,-74.5"/>
<text text-anchor="middle" x="40.25" y="-61" font-family="Helvetica,sans-Serif" font-size="10.00">Player/Player.h</text>
</a>
</g>
</g>
<!-- Node1&#45;&gt;Node2 -->
<g id="edge1_Node000001_Node000002" class="edge">
<title>Node1&#45;&gt;Node2</title>
<g id="a_edge1_Node000001_Node000002"><a xlink:title=" ">
<path fill="none" stroke="#63b8ff" d="M63.68,-110.32C59.44,-102.28 54.57,-93.05 50.38,-85.09"/>
<polygon fill="#63b8ff" stroke="#63b8ff" points="53.5,-83.5 45.74,-76.28 47.3,-86.76 53.5,-83.5"/>
</a>
</g>
</g>
<!-- Node3 -->
<g id="Node000003" class="node">
<title>Node3</title>
<g id="a_Node000003"><a xlink:title=" ">
<polygon fill="#e0e0e0" stroke="#999999" points="101,-19.25 47.5,-19.25 47.5,0 101,0 101,-19.25"/>
<text text-anchor="middle" x="74.25" y="-5.75" font-family="Helvetica,sans-Serif" font-size="10.00">iostream</text>
</a>
</g>
</g>
<!-- Node1&#45;&gt;Node3 -->
<g id="edge3_Node000001_Node000003" class="edge">
<title>Node1&#45;&gt;Node3</title>
<g id="a_edge3_Node000001_Node000003"><a xlink:title=" ">
<path fill="none" stroke="#63b8ff" d="M82.34,-110.04C87.35,-94.96 92.3,-73.89 89.25,-55.25 87.88,-46.89 85.16,-37.98 82.41,-30.34"/>
<polygon fill="#63b8ff" stroke="#63b8ff" points="85.68,-29.1 78.79,-21.04 79.16,-31.63 85.68,-29.1"/>
</a>
</g>
</g>
<!-- Node2&#45;&gt;Node3 -->
<g id="edge2_Node000002_Node000003" class="edge">
<title>Node2&#45;&gt;Node3</title>
<g id="a_edge2_Node000002_Node000003"><a xlink:title=" ">
<path fill="none" stroke="#63b8ff" d="M45.86,-55.08C50.37,-48.03 56.84,-37.9 62.46,-29.08"/>
<polygon fill="#63b8ff" stroke="#63b8ff" points="65.27,-31.2 67.7,-20.88 59.37,-27.43 65.27,-31.2"/>
</a>
</g>
</g>
</g>
</svg>
