<?xml version="1.0" encoding="UTF-8" standalone="no"?>
<!DOCTYPE svg PUBLIC "-//W3C//DTD SVG 1.1//EN"
 "http://www.w3.org/Graphics/SVG/1.1/DTD/svg11.dtd">
<!-- Generated by graphviz version 9.0.0 (20230911.1827)
 -->
<!-- Title: /github/workspace/Inheritance/01_dering_classes_from_existing_one/Saving_Account.h Pages: 1 -->
<svg width="171pt" height="160pt"
 viewBox="0.00 0.00 171.00 160.25" xmlns="http://www.w3.org/2000/svg" xmlns:xlink="http://www.w3.org/1999/xlink">
<g id="graph0" class="graph" transform="scale(1 1) rotate(0) translate(4 156.25)">
<title>/github/workspace/Inheritance/01_dering_classes_from_existing_one/Saving_Account.h</title>
<!-- Node1 -->
<g id="Node000001" class="node">
<title>Node1</title>
<g id="a_Node000001"><a xlink:title=" ">
<polygon fill="#999999" stroke="#666666" points="163,-152.25 0,-152.25 0,-110.5 163,-110.5 163,-152.25"/>
<text text-anchor="start" x="8" y="-138.75" font-family="Helvetica,sans-Serif" font-size="10.00">/github/workspace/Inheritance</text>
<text text-anchor="start" x="8" y="-127.5" font-family="Helvetica,sans-Serif" font-size="10.00">/01_dering_classes_from_existing</text>
<text text-anchor="middle" x="81.5" y="-116.25" font-family="Helvetica,sans-Serif" font-size="10.00">_one/Saving_Account.h</text>
</a>
</g>
</g>
<!-- Node2 -->
<g id="Node000002" class="node">
<title>Node2</title>
<g id="a_Node000002"><a xlink:href="Account_8h.html" target="_top" xlink:title=" ">
<polygon fill="white" stroke="#666666" points="111.25,-74.5 51.75,-74.5 51.75,-55.25 111.25,-55.25 111.25,-74.5"/>
<text text-anchor="middle" x="81.5" y="-61" font-family="Helvetica,sans-Serif" font-size="10.00">Account.h</text>
</a>
</g>
</g>
<!-- Node1&#45;&gt;Node2 -->
<g id="edge1_Node000001_Node000002" class="edge">
<title>Node1&#45;&gt;Node2</title>
<g id="a_edge1_Node000001_Node000002"><a xlink:title=" ">
<path fill="none" stroke="#63b8ff" d="M81.5,-110.32C81.5,-102.65 81.5,-93.89 81.5,-86.2"/>
<polygon fill="#63b8ff" stroke="#63b8ff" points="85,-86.46 81.5,-76.46 78,-86.46 85,-86.46"/>
</a>
</g>
</g>
<!-- Node3 -->
<g id="Node000003" class="node">
<title>Node3</title>
<g id="a_Node000003"><a xlink:title=" ">
<polygon fill="#e0e0e0" stroke="#999999" points="101.5,-19.25 61.5,-19.25 61.5,0 101.5,0 101.5,-19.25"/>
<text text-anchor="middle" x="81.5" y="-5.75" font-family="Helvetica,sans-Serif" font-size="10.00">string</text>
</a>
</g>
</g>
<!-- Node2&#45;&gt;Node3 -->
<g id="edge2_Node000002_Node000003" class="edge">
<title>Node2&#45;&gt;Node3</title>
<g id="a_edge2_Node000002_Node000003"><a xlink:title=" ">
<path fill="none" stroke="#63b8ff" d="M81.5,-55.08C81.5,-48.57 81.5,-39.42 81.5,-31.12"/>
<polygon fill="#63b8ff" stroke="#63b8ff" points="85,-31.12 81.5,-21.12 78,-31.12 85,-31.12"/>
</a>
</g>
</g>
</g>
</svg>
