<?xml version="1.0" encoding="UTF-8" standalone="no"?>
<!DOCTYPE svg PUBLIC "-//W3C//DTD SVG 1.1//EN"
 "http://www.w3.org/Graphics/SVG/1.1/DTD/svg11.dtd">
<!-- Generated by graphviz version 9.0.0 (20230911.1827)
 -->
<!-- Title: /github/workspace/Inheritance/01_dering_classes_from_existing_one/Saving_Account.cpp Pages: 1 -->
<svg width="183pt" height="216pt"
 viewBox="0.00 0.00 182.88 215.50" xmlns="http://www.w3.org/2000/svg" xmlns:xlink="http://www.w3.org/1999/xlink">
<g id="graph0" class="graph" transform="scale(1 1) rotate(0) translate(4 211.5)">
<title>/github/workspace/Inheritance/01_dering_classes_from_existing_one/Saving_Account.cpp</title>
<!-- Node1 -->
<g id="Node000001" class="node">
<title>Node1</title>
<g id="a_Node000001"><a xlink:title=" ">
<polygon fill="#999999" stroke="#666666" points="174.88,-207.5 11.88,-207.5 11.88,-165.75 174.88,-165.75 174.88,-207.5"/>
<text text-anchor="start" x="19.88" y="-194" font-family="Helvetica,sans-Serif" font-size="10.00">/github/workspace/Inheritance</text>
<text text-anchor="start" x="19.88" y="-182.75" font-family="Helvetica,sans-Serif" font-size="10.00">/01_dering_classes_from_existing</text>
<text text-anchor="middle" x="93.38" y="-171.5" font-family="Helvetica,sans-Serif" font-size="10.00">_one/Saving_Account.cpp</text>
</a>
</g>
</g>
<!-- Node2 -->
<g id="Node000002" class="node">
<title>Node2</title>
<g id="a_Node000002"><a xlink:href="Saving__Account_8h.html" target="_top" xlink:title=" ">
<polygon fill="white" stroke="#666666" points="94.75,-129.75 0,-129.75 0,-110.5 94.75,-110.5 94.75,-129.75"/>
<text text-anchor="middle" x="47.38" y="-116.25" font-family="Helvetica,sans-Serif" font-size="10.00">Saving_Account.h</text>
</a>
</g>
</g>
<!-- Node1&#45;&gt;Node2 -->
<g id="edge1_Node000001_Node000002" class="edge">
<title>Node1&#45;&gt;Node2</title>
<g id="a_edge1_Node000001_Node000002"><a xlink:title=" ">
<path fill="none" stroke="#63b8ff" d="M79.07,-165.57C73.14,-157.25 66.3,-147.66 60.49,-139.52"/>
<polygon fill="#63b8ff" stroke="#63b8ff" points="63.38,-137.54 54.72,-131.43 57.68,-141.6 63.38,-137.54"/>
</a>
</g>
</g>
<!-- Node5 -->
<g id="Node000005" class="node">
<title>Node5</title>
<g id="a_Node000005"><a xlink:title=" ">
<polygon fill="#e0e0e0" stroke="#999999" points="166.12,-129.75 112.62,-129.75 112.62,-110.5 166.12,-110.5 166.12,-129.75"/>
<text text-anchor="middle" x="139.38" y="-116.25" font-family="Helvetica,sans-Serif" font-size="10.00">iostream</text>
</a>
</g>
</g>
<!-- Node1&#45;&gt;Node5 -->
<g id="edge4_Node000001_Node000005" class="edge">
<title>Node1&#45;&gt;Node5</title>
<g id="a_edge4_Node000001_Node000005"><a xlink:title=" ">
<path fill="none" stroke="#63b8ff" d="M107.68,-165.57C113.61,-157.25 120.45,-147.66 126.26,-139.52"/>
<polygon fill="#63b8ff" stroke="#63b8ff" points="129.07,-141.6 132.03,-131.43 123.37,-137.54 129.07,-141.6"/>
</a>
</g>
</g>
<!-- Node3 -->
<g id="Node000003" class="node">
<title>Node3</title>
<g id="a_Node000003"><a xlink:href="Account_8h.html" target="_top" xlink:title=" ">
<polygon fill="white" stroke="#666666" points="77.12,-74.5 17.62,-74.5 17.62,-55.25 77.12,-55.25 77.12,-74.5"/>
<text text-anchor="middle" x="47.38" y="-61" font-family="Helvetica,sans-Serif" font-size="10.00">Account.h</text>
</a>
</g>
</g>
<!-- Node2&#45;&gt;Node3 -->
<g id="edge2_Node000002_Node000003" class="edge">
<title>Node2&#45;&gt;Node3</title>
<g id="a_edge2_Node000002_Node000003"><a xlink:title=" ">
<path fill="none" stroke="#63b8ff" d="M47.38,-110.33C47.38,-103.82 47.38,-94.67 47.38,-86.37"/>
<polygon fill="#63b8ff" stroke="#63b8ff" points="50.88,-86.37 47.38,-76.37 43.88,-86.37 50.88,-86.37"/>
</a>
</g>
</g>
<!-- Node4 -->
<g id="Node000004" class="node">
<title>Node4</title>
<g id="a_Node000004"><a xlink:title=" ">
<polygon fill="#e0e0e0" stroke="#999999" points="67.38,-19.25 27.38,-19.25 27.38,0 67.38,0 67.38,-19.25"/>
<text text-anchor="middle" x="47.38" y="-5.75" font-family="Helvetica,sans-Serif" font-size="10.00">string</text>
</a>
</g>
</g>
<!-- Node3&#45;&gt;Node4 -->
<g id="edge3_Node000003_Node000004" class="edge">
<title>Node3&#45;&gt;Node4</title>
<g id="a_edge3_Node000003_Node000004"><a xlink:title=" ">
<path fill="none" stroke="#63b8ff" d="M47.38,-55.08C47.38,-48.57 47.38,-39.42 47.38,-31.12"/>
<polygon fill="#63b8ff" stroke="#63b8ff" points="50.88,-31.12 47.38,-21.12 43.88,-31.12 50.88,-31.12"/>
</a>
</g>
</g>
</g>
</svg>
